<?xml version="1.0" standalone="no"?>
<!DOCTYPE svg PUBLIC "-//W3C//DTD SVG 20010904//EN"
 "http://www.w3.org/TR/2001/REC-SVG-20010904/DTD/svg10.dtd">
<svg version="1.0" xmlns="http://www.w3.org/2000/svg"
 width="742.000000pt" height="593.000000pt" viewBox="0 0 742.000000 593.000000"
 preserveAspectRatio="xMidYMid meet">

<g transform="translate(0.000000,593.000000) scale(0.100000,-0.100000)"
fill="#000000" stroke="none">
<path d="M2740 5915 c-199 -41 -393 -148 -532 -293 -171 -179 -248 -393 -235
-647 13 -228 98 -467 255 -720 28 -44 49 -81 48 -82 -1 -2 -56 9 -122 23 -548
116 -1244 108 -1813 -21 l-73 -17 6 -82 c45 -543 245 -1214 501 -1679 277
-504 596 -859 1037 -1153 449 -301 1002 -479 1620 -523 465 -34 964 24 1385
160 711 230 1275 669 1673 1302 319 509 542 1158 615 1792 8 77 18 147 21 157
6 19 -54 35 -282 73 -525 89 -1104 84 -1578 -15 -55 -11 -100 -19 -102 -18 -1
2 20 39 48 83 157 253 242 492 255 720 14 264 -64 471 -247 656 -134 135 -290
225 -475 274 -309 81 -628 -45 -934 -372 l-91 -97 -91 97 c-292 312 -596 442
-889 382z m240 -296 c75 -17 200 -85 293 -161 129 -104 299 -309 403 -486 l38
-64 18 24 c11 12 59 82 107 153 139 203 273 343 429 446 94 62 170 90 257 96
92 7 171 -14 304 -78 264 -129 383 -369 327 -661 -46 -242 -171 -467 -447
-810 -52 -65 -59 -69 -236 -158 -262 -130 -445 -256 -668 -457 l-100 -91 -88
82 c-214 196 -415 337 -663 464 l-160 81 -85 108 c-173 218 -243 322 -319 473
-217 431 -133 796 221 969 158 77 257 96 369 70z m-1369 -1649 c257 -20 518
-66 719 -126 433 -128 843 -364 1112 -641 l57 -58 -100 -115 c-510 -587 -831
-1166 -933 -1682 l-21 -107 -160 78 c-186 90 -286 151 -445 270 -130 96 -382
342 -484 471 -359 454 -613 1036 -731 1673 -31 172 -31 183 -2 190 38 9 277
38 387 46 158 12 449 12 601 1z m4924 -24 c66 -8 145 -18 176 -22 87 -10 85
-7 65 -126 -74 -448 -240 -929 -447 -1296 -155 -274 -297 -462 -513 -677 -229
-228 -422 -366 -711 -506 -417 -203 -883 -303 -1410 -303 -314 0 -540 26 -828
95 l-127 31 6 51 c66 551 464 1219 1152 1938 216 226 427 381 702 518 352 175
711 270 1170 310 143 13 618 5 765 -13z"/>
<path d="M621 5375 c-214 -60 -355 -261 -338 -480 13 -175 129 -331 295 -396
82 -33 242 -33 324 0 118 46 223 151 269 268 33 83 33 243 0 325 -46 118 -153
224 -268 268 -76 29 -207 36 -282 15z"/>
<path d="M6541 5375 c-214 -60 -355 -261 -338 -480 13 -175 129 -331 295 -396
82 -33 242 -33 324 0 118 46 223 151 269 268 33 83 33 243 0 325 -46 118 -153
224 -268 268 -76 29 -207 36 -282 15z"/>
<path d="M143 2416 c-73 -17 -134 -34 -137 -37 -9 -9 61 -212 114 -331 256
-574 694 -1070 1253 -1420 148 -93 498 -264 667 -327 570 -211 1304 -326 1868
-292 551 32 1025 127 1472 292 169 63 519 234 667 327 551 345 990 838 1243
1398 61 136 134 345 123 355 -13 11 -277 68 -284 61 -3 -4 -16 -38 -29 -77
-116 -357 -365 -750 -665 -1050 -602 -603 -1450 -939 -2537 -1006 -368 -23
-854 27 -1284 131 -694 168 -1263 486 -1700 950 -263 279 -482 636 -594 970
-16 46 -33 85 -37 86 -4 1 -67 -12 -140 -30z"/>
</g>
</svg>
